<svg xmlns="http://www.w3.org/2000/svg" version="1.1" xmlns:xlink="http://www.w3.org/1999/xlink" xmlns:svgjs="http://svgjs.dev/svgjs" width="100%" height="100%" viewBox="0 0 1000 600"><rect width="1000" height="600" x="0" y="0" fill="#f8fafc"/><g><rect width="333.3333333333333" height="333.3333333333333" rx="13.333333333333334" ry="13.333333333333334" y="363.4241194385588" fill="#334155" transform="matrix(0.3663519998740665,0,0,0.3663519998740665,0,105.80017471747472)" x="341.2018127441406"/><path d="M481.84167607638426 605.0907784277435L481.84167607638426 605.0907784277435L481.84167607638426 601.9057197421894Q489.3742236247024 601.74297951738 494.4889164044246 598.2091917786629Q499.5803605806026 594.6986526434898 502.18420417755203 586.584890006567Q504.7647991709573 578.4711273696441 504.7647991709573 564.9171915033803L504.7647991709573 564.9171915033803L504.7647991709573 472.8527214683811Q504.7647991709573 466.64534432208194 503.7651092185571 463.71602027551376Q502.76541926615687 460.78669622894563 499.8360952195887 459.6940118623686Q496.9067711730205 458.62457609933574 491.2108633046936 458.4385872709822L491.2108633046936 458.4385872709822L491.2108633046936 455.0907883606186Q494.7214024398665 455.2767771889722 500.41731030819346 455.4395174137815Q506.11321817652043 455.60225763859086 512.2973467192754 455.60225763859086L512.2973467192754 455.60225763859086Q518.5047238655746 455.60225763859086 524.2703775445342 455.4395174137815Q530.0592798270379 455.2767771889722 533.8952994118296 455.0907883606186L533.8952994118296 455.0907883606186L533.8952994118296 458.4385872709822Q528.1993915435025 458.62457609933574 525.2700674969344 459.6940118623686Q522.3407434503663 460.78669622894563 521.341053497966 463.71602027551376Q520.3413635455657 466.64534432208194 520.3413635455657 472.8527214683811L520.3413635455657 472.8527214683811L520.3413635455657 534.1127918073263Q520.3413635455657 540.9711298528628 520.1786233207564 549.0151466791531Q520.0158830959471 557.0359149018993 519.4114194037982 564.5684624502173Q518.8302043151933 572.1010099985356 517.5050339131744 577.7969178668625L517.5050339131744 577.7969178668625Q514.6454556772388 589.5142140531352 505.53200308791565 597.3024962404393Q496.3953018950483 605.0907784277435 481.84167607638426 605.0907784277435Z " fill="#f8fafc" transform="matrix(0.3663519998740665,0,0,0.3663519998740665,0,105.80017471747472)"/><path d="M757.8684876681673 605.0907669313749L757.8684876681673 605.0907669313749L757.8684876681673 602.0960136680915Q764.9509698382683 601.9429970779968 769.7600626698184 598.6203511216531Q774.5472959884978 595.3195646781801 776.9955614300142 587.6905946863121Q779.4219673586599 580.0616246944439 779.4219673586599 567.3175286908363L779.4219673586599 567.3175286908363L779.4219673586599 480.7538577229351Q779.4219673586599 474.91736778646305 778.4820083052206 472.1630691647571Q777.5420492517812 469.4087705430511 774.7877506300753 468.38137343812906Q772.0334520083693 467.3758358460777 766.6778713550523 467.2009597431122L766.6778713550523 467.2009597431122L766.6778713550523 464.05318988973397Q769.9786577985252 464.22806599269944 775.3342384518423 464.38108258279425Q780.6898191051595 464.534099172889 786.5044495287609 464.534099172889L786.5044495287609 464.534099172889Q792.3409394652331 464.534099172889 797.7620986571621 464.38108258279425Q803.205117361962 464.22806599269944 806.8119369856246 464.05318988973397L806.8119369856246 464.05318988973397L806.8119369856246 467.2009597431122Q801.4563563323075 467.3758358460777 798.7020577106016 468.38137343812906Q795.9477590888955 469.4087705430511 795.0078000354563 472.1630691647571Q794.0678409820168 474.91736778646305 794.0678409820168 480.7538577229351L794.0678409820168 480.7538577229351L794.0678409820168 538.3536741371825Q794.0678409820168 544.8022304340337 793.9148243919221 552.3656218872898Q793.7618078018273 559.9071538276751 793.1934604671897 566.9896359977761Q792.6469726454226 574.0721181678771 791.4009804117936 579.4276988211942L791.4009804117936 579.4276988211942Q788.7122603286998 590.444893308018 780.1433312833924 597.7678301196966Q771.5525427252144 605.0907669313749 757.8684876681673 605.0907669313749ZM839.2295945728462 576.5859621480056L839.2295945728462 576.5859621480056Q832.7810382759949 576.5859621480056 828.0593834959276 574.1595562193597Q823.3377287158603 571.7112907778435 820.9113227872145 567.3175286908363Q818.4630573456982 562.9019070909585 818.4630573456982 557.0872766673572L818.4630573456982 557.0872766673572Q818.4630573456982 550.1578110873509 821.6982652505591 545.7421894874731Q824.9116136425494 541.3484274004659 829.961161115677 538.6597073173721Q834.9888490759338 535.9928467471489 840.5848843708284 534.1785071788822Q846.1590601528524 532.3641676106156 851.20860762598 530.7247041453145Q856.2362955862368 529.0633811671426 859.4715034910978 526.8555703672037Q862.6848518830881 524.6477595672648 862.6848518830881 521.0409399436023L862.6848518830881 521.0409399436023L862.6848518830881 511.26973769040734Q862.6848518830881 504.66816480346137 860.7174957247266 501.2143617698936Q858.7501395663653 497.7386992234551 855.4493531228923 496.5582855284383Q852.1485666794192 495.37787183342147 848.0608377726018 495.37787183342147L848.0608377726018 495.37787183342147Q844.126125455879 495.37787183342147 839.6230658045184 496.4927069898263Q835.1418656660286 497.58568263336036 832.4750050958054 501.0394856669281L832.4750050958054 501.0394856669281Q835.4697583590888 501.67341154017794 837.655709646157 504.1872555203064Q839.8635204460959 506.7229590133055 839.8635204460959 510.6576713300283L839.8635204460959 510.6576713300283Q839.8635204460959 514.592383646751 837.3496764659675 516.865772985302Q834.8358324858391 519.1391623238529 830.9011201691162 519.1391623238529L830.9011201691162 519.1391623238529Q826.3324819791437 519.1391623238529 824.2121092306875 516.2318471120523Q822.0917364822315 513.3245319002515 822.0917364822315 509.6958527637183L822.0917364822315 509.6958527637183Q822.0917364822315 505.6081238569007 824.1246711792048 503.09427987677225Q826.1794653890489 500.5804358966438 829.3272352424272 498.3726250967049L829.3272352424272 498.3726250967049Q832.9340548660897 495.8587811165765 838.6831067510791 494.04444154830986Q844.4321586360685 492.23010198004323 851.6676573962643 492.23010198004323L851.6676573962643 492.23010198004323Q858.1162136931155 492.23010198004323 862.6848518830881 493.7384083681203Q867.2534900730607 495.2248552433267 870.2482433363441 498.0665919165154L870.2482433363441 498.0665919165154Q874.3359722431617 501.8264281302727 875.6038239896612 507.26944683507253Q876.8498162232901 512.6906060270016 876.8498162232901 520.2539974802578L876.8498162232901 520.2539974802578L876.8498162232901 563.9948827344926Q876.8498162232901 567.9295950512154 878.030229918307 569.67835608087Q879.2106436133238 571.4052575976539 881.7244875934522 571.4052575976539L881.7244875934522 571.4052575976539Q883.4732486231068 571.4052575976539 885.0471335497958 570.6183151343093Q886.621018476485 569.8313726709648 888.8069697635532 568.1044711541808L888.8069697635532 568.1044711541808L890.5557307932078 570.771331724404Q887.2330848368641 573.2851757045325 884.2601910864513 574.9464986827044Q881.2654378231679 576.5859621480056 876.2158903500404 576.5859621480056L876.2158903500404 576.5859621480056Q871.6691116729385 576.5859621480056 868.6743584096549 575.0120772213164Q865.6796051463715 573.4381922946272 864.1931582711652 570.3778604927318Q862.6848518830881 567.3175286908363 862.6848518830881 562.5958739107689L862.6848518830881 562.5958739107689Q858.4441063861757 569.67835608087 852.5420379110916 573.1321591144377Q846.6399694360074 576.5859621480056 839.2295945728462 576.5859621480056ZM844.9130679192235 570.2904224412491L844.9130679192235 570.2904224412491Q850.0937724695752 570.2904224412491 854.574972608065 567.3175286908363Q859.0780322594255 564.3227754275529 862.6848518830881 558.333268900986L862.6848518830881 558.333268900986L862.6848518830881 527.4894962404535Q860.8049337762094 530.1563568106767 857.1762546396762 531.9706963789433Q853.5694350160136 533.78503594721 849.3068300062306 535.5993755154766Q845.0660845093182 537.4137150837432 841.1969507312076 539.8401210123889Q837.3496764659675 542.2883864539053 834.8358324858391 546.223098770628Q832.3219885057106 550.1578110873509 832.3219885057106 556.4533507941073L832.3219885057106 556.4533507941073Q832.3219885057106 562.7488905008638 835.6883534877957 566.5305862274918Q839.0765779827514 570.2904224412491 844.9130679192235 570.2904224412491ZM947.2155881540158 492.23010198004323L947.2155881540158 492.23010198004323Q952.7241853974277 492.23010198004323 956.8119143042452 493.80398690673235Q960.8996432110628 495.37787183342147 963.566503781286 498.21960850661014L963.566503781286 498.21960850661014Q966.5612570445695 501.3673783599884 967.6760922009743 506.39506632024523Q968.7690678445084 511.4446137933728 968.7690678445084 518.8331291436634L968.7690678445084 518.8331291436634L968.7690678445084 560.8471128811144Q968.7690678445084 567.4705452809311 971.5233664662144 569.8313726709648Q974.2776650879202 572.1922000609984 980.7262213847715 572.1922000609984L980.7262213847715 572.1922000609984L980.7262213847715 575.4929865044714Q978.0593608145483 575.3399699143766 972.5507635711364 575.0995152727992Q967.0421663277245 574.8590606312216 961.8396022645022 574.8590606312216L961.8396022645022 574.8590606312216Q956.6588977141505 574.8590606312216 951.6967882925056 575.0995152727992Q946.7346788708608 575.3399699143766 944.2208348907324 575.4929865044714L944.2208348907324 575.4929865044714L944.2208348907324 572.1922000609984Q949.8824487242391 572.1922000609984 952.2432761142727 569.8313726709648Q954.6041035043063 567.4705452809311 954.6041035043063 560.8471128811144L954.6041035043063 560.8471128811144L954.6041035043063 515.3793261100957Q954.6041035043063 510.4827952270628 953.9701776310566 506.39506632024523Q953.3362517578068 502.3073374134277 950.8224077776783 499.79349343329926Q948.3085637975499 497.2796494531708 942.6469499640433 497.2796494531708L942.6469499640433 497.2796494531708Q936.5044268473816 497.2796494531708 931.6953340158315 501.0394856669281Q926.9081006971521 504.8211813935562 924.1538020754462 511.3571757418901Q921.3995034537402 517.893170090224 921.3995034537402 525.9156113137644L921.3995034537402 525.9156113137644L921.3995034537402 560.8471128811144Q921.3995034537402 567.4705452809311 923.7603308437739 569.8313726709648Q926.1211582338076 572.1922000609984 931.7827720673142 572.1922000609984L931.7827720673142 572.1922000609984L931.7827720673142 575.4929865044714Q929.2689280871858 575.3399699143766 924.306818665541 575.0995152727992Q919.3447092438961 574.8590606312216 914.1640046935445 574.8590606312216L914.1640046935445 574.8590606312216Q908.9614406303222 574.8590606312216 903.4528433869102 575.0995152727992Q897.9442461434983 575.3399699143766 895.2773855732751 575.4929865044714L895.2773855732751 575.4929865044714L895.2773855732751 572.1922000609984Q901.7259418701263 572.1922000609984 904.4802404918323 569.8313726709648Q907.2345391135382 567.4705452809311 907.2345391135382 560.8471128811144L907.2345391135382 560.8471128811144L907.2345391135382 511.5976303834676Q907.2345391135382 504.5151482133666 904.7206951334098 501.12692371841086Q902.1849916404107 497.7386992234551 895.2773855732751 497.7386992234551L895.2773855732751 497.7386992234551L895.2773855732751 494.4379127799821Q900.305073533532 494.91882206313716 905.0267283135993 494.91882206313716L905.0267283135993 494.91882206313716Q909.5953665035719 494.91882206313716 913.7705334618722 494.3504747284994Q917.9238409073018 493.80398690673235 921.3995034537402 492.71101126319826L921.3995034537402 492.71101126319826L921.3995034537402 511.26973769040734Q925.4872323605578 501.0394856669281 932.5697145306588 496.645723579921Q939.6521967007598 492.23010198004323 947.2155881540158 492.23010198004323ZM994.585152544784 492.23010198004323L994.585152544784 492.23010198004323Q1000.0937497881959 492.23010198004323 1004.1814786950134 493.80398690673235Q1008.269207601831 495.37787183342147 1010.9579276849249 498.21960850661014L1010.9579276849249 498.21960850661014Q1013.9308214353376 501.3673783599884 1015.0456565917425 506.39506632024523Q1016.1386322352765 511.4446137933728 1016.1386322352765 518.8331291436634L1016.1386322352765 518.8331291436634L1016.1386322352765 560.8471128811144Q1016.1386322352765 567.4705452809311 1018.8929308569825 569.8313726709648Q1021.6472294786884 572.1922000609984 1028.0957857755398 572.1922000609984L1028.0957857755398 572.1922000609984L1028.0957857755398 575.4929865044714Q1025.4289252053163 575.3399699143766 1019.9203279619045 575.0995152727992Q1014.4117307184927 574.8590606312216 1009.2091666552703 574.8590606312216L1009.2091666552703 574.8590606312216Q1004.0284621049186 574.8590606312216 999.0663526832739 575.0995152727992Q994.1042432616289 575.3399699143766 991.5903992815006 575.4929865044714L991.5903992815006 575.4929865044714L991.5903992815006 572.1922000609984Q997.2520131150071 572.1922000609984 999.6128405050408 569.8313726709648Q1001.9736678950745 567.4705452809311 1001.9736678950745 560.8471128811144L1001.9736678950745 560.8471128811144L1001.9736678950745 515.3793261100957Q1001.9736678950745 510.4827952270628 1001.3397420218247 506.39506632024523Q1000.7276756614456 502.3073374134277 998.1919721684465 499.79349343329926Q995.678128188318 497.2796494531708 990.0165143548114 497.2796494531708L990.0165143548114 497.2796494531708Q983.8739912381498 497.2796494531708 979.0867579194703 501.0394856669281Q974.2776650879202 504.8211813935562 971.5233664662144 511.26973769040734Q968.7690678445084 517.7401535001293 968.7690678445084 525.7625947236696L968.7690678445084 525.7625947236696L968.2881585613534 511.1167211003126Q972.5507635711364 500.25254320358357 979.7862623313322 496.25225234824876Q987.0217610915279 492.23010198004323 994.585152544784 492.23010198004323ZM1073.2793988792396 492.23010198004323L1073.2793988792396 492.23010198004323Q1087.1164705263814 492.23010198004323 1094.9203166212149 500.64601443525584Q1102.7023032031777 509.08378640333916 1102.7023032031777 526.8555703672037L1102.7023032031777 526.8555703672037L1047.1572809987745 526.8555703672037L1046.982404895809 523.8608171039202L1087.5973798095365 523.8608171039202Q1087.903412989726 516.1662685734402 1086.3295280630368 509.63027422510623Q1084.7556431363478 503.09427987677225 1081.3892781542627 499.1595675600495Q1078.0010536593068 495.2248552433267 1072.6454730059897 495.2248552433267L1072.6454730059897 495.2248552433267Q1065.409974245794 495.2248552433267 1059.8139389508995 502.46035400352247Q1054.2397631688755 509.6958527637183 1053.1249280124707 525.4347020306093L1053.1249280124707 525.4347020306093L1053.6058372956256 526.0686279038591Q1053.2779446025654 528.4294552938928 1053.1249280124707 531.2711919670814Q1052.9719114223758 534.0910691273996 1052.9719114223758 536.9328058005881L1052.9719114223758 536.9328058005881Q1052.9719114223758 547.6439671072224 1056.4257144559438 555.3385156377026Q1059.901377002382 563.0549236810533 1065.475552784406 567.0770740492587Q1071.0715880793007 571.0773649045937 1077.0610946058675 571.0773649045937L1077.0610946058675 571.0773649045937Q1081.782749385935 571.0773649045937 1086.0234948828472 569.5909180293872Q1090.2642403797595 568.1044711541808 1093.8929195162927 564.6288086077425Q1097.521598652826 561.1750055741746 1100.1884592230492 555.3385156377026L1100.1884592230492 555.3385156377026L1103.3362290764276 556.606367384202Q1101.6093275596436 561.8089314474244 1097.6746152429207 566.6836028175865Q1093.739902926198 571.5582741877486 1087.7503963996312 574.6186059896442Q1081.782749385935 577.7007973044103 1073.9133247524892 577.7007973044103L1073.9133247524892 577.7007973044103Q1062.5682375726053 577.7007973044103 1054.4583582975824 572.498233241188Q1046.37033853543 567.3175286908363 1042.0421549870348 558.0928142594084Q1037.7139714386399 548.8899593408513 1037.7139714386399 536.9328058005881L1037.7139714386399 536.9328058005881Q1037.7139714386399 523.0738746405757 1042.1077335256468 513.0840772586739Q1046.5233551255246 503.09427987677225 1054.545796349065 497.67312068484307Q1062.5682375726053 492.23010198004323 1073.2793988792396 492.23010198004323ZM1142.83636883375 492.23010198004323L1142.83636883375 492.23010198004323Q1149.1319085405066 492.23010198004323 1153.5475301403844 494.2848961898874Q1157.9412922273914 496.3178308868608 1159.9960864372356 498.0665919165154L1159.9960864372356 498.0665919165154Q1165.198650500458 502.3073374134277 1166.291626143992 492.38311857013804L1166.291626143992 492.38311857013804L1169.920305280525 492.38311857013804Q1169.5924125874649 496.79874017001583 1169.4393959973702 502.85382523519473Q1169.2863794072755 508.9089103003737 1169.2863794072755 519.1391623238529L1169.2863794072755 519.1391623238529L1165.6577002707422 519.1391623238529Q1164.7177412173028 513.3245319002515 1162.4443518787518 507.8159346568396Q1160.1491030273303 502.3073374134277 1155.7553409403233 498.7660963283772Q1151.3397193404455 495.2248552433267 1144.2572371703443 495.2248552433267L1144.2572371703443 495.2248552433267Q1138.7486399269326 495.2248552433267 1135.0543822517873 498.2851870452222Q1131.360124576642 501.3673783599884 1131.360124576642 507.3350253736846L1131.360124576642 507.3350253736846Q1131.360124576642 512.0566801537519 1134.1800017369599 515.4449046487077Q1137.0217384101486 518.8331291436634 1141.590376600121 521.7404443554641Q1146.137155277223 524.6477595672648 1151.4927359305402 528.1234221137033L1151.4927359305402 528.1234221137033Q1157.482242457107 531.9051178403313 1162.3569138272692 535.839830157054Q1167.2315851974313 539.7745424737768 1170.138900409232 544.4961972538442Q1173.0680751339034 549.2178520339115 1173.0680751339034 555.6664083307628L1173.0680751339034 555.6664083307628Q1173.0680751339034 562.9019070909585 1169.2863794072755 567.7765784611206Q1165.5046836806473 572.6512498312827 1159.4495986154684 575.1869533242818Q1153.3945135502895 577.7007973044103 1146.137155277223 577.7007973044103L1146.137155277223 577.7007973044103Q1142.6833522436552 577.7007973044103 1139.6230204417598 577.1543094826433Q1136.5408291269937 576.5859621480056 1133.7209519666756 575.4929865044714L1133.7209519666756 575.4929865044714Q1132.1470670399865 574.7060440411269 1130.4857440618148 573.6130683975928Q1128.8244210836428 572.498233241188 1127.2505361569538 571.2522410075592L1127.2505361569538 571.2522410075592Q1125.6766512302645 569.9843892610595 1124.4306589966359 571.3178195461712Q1123.1628072501362 572.6512498312827 1122.5288813768864 576.5859621480056L1122.5288813768864 576.5859621480056L1118.9220617532237 576.5859621480056Q1119.2280949334133 571.5582741877486 1119.381111523508 564.3227754275529Q1119.5559876264736 557.0872766673572 1119.5559876264736 545.1082636142232L1119.5559876264736 545.1082636142232L1123.1628072501362 545.1082636142232Q1124.277642406541 553.9395068139788 1126.3105771035143 560.5410797009249Q1128.3653713133585 567.1426525878708 1132.7591334003657 570.8587697758868Q1137.1747550002435 574.5530274510321 1145.044179633689 574.5530274510321L1145.044179633689 574.5530274510321Q1148.1919494870672 574.5530274510321 1151.4271573919282 573.1321591144377Q1154.6405057839183 571.7112907778435 1156.8483165838572 568.4105043343704Q1159.0561273837961 565.1097178908974 1159.0561273837961 559.6011206474855L1159.0561273837961 559.6011206474855Q1159.0561273837961 552.6716550674794 1154.0065799106687 548.2560334676016Q1148.9788919504117 543.8622713805944 1141.2624839070609 538.9876000104323L1141.2624839070609 538.9876000104323Q1135.6008700735542 535.358920873899 1130.6387606519095 531.7302417373658Q1125.6766512302645 528.1234221137033 1122.616319428369 523.5547839237307Q1119.5559876264736 518.9861457337581 1119.5559876264736 512.537589436907L1119.5559876264736 512.537589436907Q1119.5559876264736 505.4551072668059 1122.769336018464 500.97390712831606Q1126.004543923325 496.4927069898263 1131.360124576642 494.3504747284994Q1136.6938457170884 492.23010198004323 1142.83636883375 492.23010198004323ZM1319.8984230862752 464.05318988973397L1319.8984230862752 464.05318988973397L1319.8984230862752 467.2009597431122Q1316.9036698229918 467.834885616362 1313.5373048409067 470.8296388796455Q1310.149080345951 473.8243921429289 1307.4603602628572 480.9068743130299L1307.4603602628572 480.9068743130299L1270.474064485663 576.279928967816Q1270.1680313054735 576.279928967816 1269.861998125284 576.279928967816Q1269.5341054322234 576.279928967816 1269.228072252034 576.279928967816L1269.228072252034 576.279928967816Q1268.9001795589738 576.279928967816 1268.5941463787842 576.279928967816Q1268.2881131985948 576.279928967816 1267.9602205055346 576.279928967816L1267.9602205055346 576.279928967816L1229.553056391746 477.2781951764967Q1227.1922290017123 471.3105481628005 1224.2193352512995 469.34319200443906Q1221.224581988016 467.3758358460777 1218.7107380078878 467.2009597431122L1218.7107380078878 467.2009597431122L1218.7107380078878 464.05318988973397Q1221.858507861266 464.22806599269944 1226.4927245898505 464.38108258279425Q1231.1269413184352 464.534099172889 1235.542562918313 464.534099172889L1235.542562918313 464.534099172889Q1241.6850860349746 464.534099172889 1247.0406666882918 464.38108258279425Q1252.3743878287382 464.22806599269944 1255.6970337850819 464.05318988973397L1255.6970337850819 464.05318988973397L1255.6970337850819 467.2009597431122Q1250.3414531317646 467.3758358460777 1247.5871545100588 468.46881148961177Q1244.8328558883527 469.5617871331459 1244.5924012467754 472.3160857548518Q1244.3519466051978 475.0703843765578 1246.406740815042 480.4259650298749L1246.406740815042 480.4259650298749L1275.6766285488852 558.0272357207964L1273.1627845687567 560.6940962910196L1300.5527541957217 489.56324140982Q1303.8535406391945 481.0598909031247 1303.7005240490998 476.25079807157465Q1303.5256479461343 471.4635647528952 1300.0718449125666 469.4087705430511Q1296.6180418789988 467.3758358460777 1289.9946094791821 467.2009597431122L1289.9946094791821 467.2009597431122L1289.9946094791821 464.05318988973397Q1294.5632476691549 464.22806599269944 1299.284902449222 464.38108258279425Q1304.0065572292892 464.534099172889 1308.0942861361068 464.534099172889L1308.0942861361068 464.534099172889Q1312.1820150429244 464.534099172889 1314.8707351260182 464.38108258279425Q1317.5375956962416 464.22806599269944 1319.8984230862752 464.05318988973397ZM1341.298886186673 455.09078961275435L1341.298886186673 455.09078961275435Q1345.4084746063613 455.09078961275435 1348.3813683567741 458.0855428760378Q1351.3761216200573 461.0802961393212 1351.3761216200573 465.1680250461388L1351.3761216200573 465.1680250461388Q1351.3761216200573 469.25575395295635 1348.3813683567741 472.2505072162398Q1345.4084746063613 475.24526047952327 1341.298886186673 475.24526047952327L1341.298886186673 475.24526047952327Q1337.2111572798553 475.24526047952327 1334.2164040165721 472.2505072162398Q1331.2435102661593 469.25575395295635 1331.2435102661593 465.1680250461388L1331.2435102661593 465.1680250461388Q1331.2435102661593 461.0802961393212 1334.2164040165721 458.0855428760378Q1337.2111572798553 455.09078961275435 1341.298886186673 455.09078961275435ZM1349.496203513179 492.71101126319826L1349.496203513179 492.71101126319826L1349.496203513179 560.8471128811144Q1349.496203513179 567.4705452809311 1352.2505021348848 569.8313726709648Q1355.0048007565906 572.1922000609984 1361.4533570534418 572.1922000609984L1361.4533570534418 572.1922000609984L1361.4533570534418 575.4929865044714Q1358.7864964832188 575.3399699143766 1353.343477778419 575.0995152727992Q1347.9223185864898 574.8590606312216 1342.413721343078 574.8590606312216L1342.413721343078 574.8590606312216Q1337.0581406897606 574.8590606312216 1331.5495434463487 575.0995152727992Q1326.040946202937 575.3399699143766 1323.3740856327136 575.4929865044714L1323.3740856327136 575.4929865044714L1323.3740856327136 572.1922000609984Q1329.8226419295647 572.1922000609984 1332.576940551271 569.8313726709648Q1335.331239172977 567.4705452809311 1335.331239172977 560.8471128811144L1335.331239172977 560.8471128811144L1335.331239172977 511.5976303834676Q1335.331239172977 504.5151482133666 1332.8173951928484 501.12692371841086Q1330.2816916998493 497.7386992234551 1323.3740856327136 497.7386992234551L1323.3740856327136 497.7386992234551L1323.3740856327136 494.4379127799821Q1328.4017735929706 494.91882206313716 1333.1234283730378 494.91882206313716L1333.1234283730378 494.91882206313716Q1337.6920665630105 494.91882206313716 1341.8672335213107 494.3504747284994Q1346.0205409667403 493.80398690673235 1349.496203513179 492.71101126319826ZM1422.3539599111625 492.23010198004323L1422.3539599111625 492.23010198004323Q1428.3434664377291 492.23010198004323 1432.3656168059347 493.80398690673235Q1436.3659076612696 495.37787183342147 1439.0546277443634 498.21960850661014L1439.0546277443634 498.21960850661014Q1442.0275214947762 501.3673783599884 1443.295373241276 506.08903314005573Q1444.5632249877754 510.81068792012303 1444.5632249877754 518.8331291436634L1444.5632249877754 518.8331291436634L1444.5632249877754 560.8471128811144Q1444.5632249877754 567.4705452809311 1447.3175236094812 569.8313726709648Q1450.0718222311873 572.1922000609984 1456.5203785280385 572.1922000609984L1456.5203785280385 572.1922000609984L1456.5203785280385 575.4929865044714Q1453.8316584449447 575.3399699143766 1448.3230612015327 575.0995152727992Q1442.8144639581208 574.8590606312216 1437.633759407769 574.8590606312216L1437.633759407769 574.8590606312216Q1432.4311953445467 574.8590606312216 1427.469085922902 575.0995152727992Q1422.5288360141278 575.3399699143766 1419.9931325211285 575.4929865044714L1419.9931325211285 575.4929865044714L1419.9931325211285 572.1922000609984Q1425.676605867506 572.1922000609984 1428.0374332575395 569.8313726709648Q1430.3982606475734 567.4705452809311 1430.3982606475734 560.8471128811144L1430.3982606475734 560.8471128811144L1430.3982606475734 515.3793261100957Q1430.3982606475734 510.4827952270628 1429.6113181842286 506.39506632024523Q1428.824375720884 502.3073374134277 1426.0700770991782 499.79349343329926Q1423.3157784774723 497.2796494531708 1417.6323051310949 497.2796494531708L1417.6323051310949 497.2796494531708Q1411.0307322441488 497.2796494531708 1406.068622822504 501.0394856669281Q1401.1065134008593 504.8211813935562 1398.3522147791534 511.3571757418901Q1395.5979161574476 517.893170090224 1395.5979161574476 525.9156113137644L1395.5979161574476 525.9156113137644L1395.5979161574476 560.8471128811144Q1395.5979161574476 567.4705452809311 1397.9587435474812 569.8313726709648Q1400.3195709375148 572.1922000609984 1406.0030442838922 572.1922000609984L1406.0030442838922 572.1922000609984L1406.0030442838922 575.4929865044714Q1403.4673407908929 575.3399699143766 1398.5270908821187 575.0995152727992Q1393.564981460474 574.8590606312216 1388.3624173972516 574.8590606312216L1388.3624173972516 574.8590606312216Q1383.1817128469 574.8590606312216 1377.6731156034882 575.0995152727992Q1372.164518360076 575.3399699143766 1369.4757982769822 575.4929865044714L1369.4757982769822 575.4929865044714L1369.4757982769822 572.1922000609984Q1375.9243545738334 572.1922000609984 1378.6786531955395 569.8313726709648Q1381.4329518172453 567.4705452809311 1381.4329518172453 560.8471128811144L1381.4329518172453 560.8471128811144L1381.4329518172453 511.5976303834676Q1381.4329518172453 504.5151482133666 1378.919107837117 501.12692371841086Q1376.4052638569885 497.7386992234551 1369.4757982769822 497.7386992234551L1369.4757982769822 497.7386992234551L1369.4757982769822 494.4379127799821Q1374.5253457501099 494.91882206313716 1379.2470005301773 494.91882206313716L1379.2470005301773 494.91882206313716Q1383.793779207279 494.91882206313716 1387.9689461655792 494.3504747284994Q1392.1441131238796 493.80398690673235 1395.5979161574476 492.71101126319826L1395.5979161574476 492.71101126319826L1395.5979161574476 511.26973769040734Q1399.7075045771355 500.5804358966438 1407.0085818759435 496.4052689383435Q1414.3315186876218 492.23010198004323 1422.3539599111625 492.23010198004323ZM1502.7969672752724 492.23010198004323L1502.7969672752724 492.23010198004323Q1507.8246552355292 492.23010198004323 1512.5463100155966 493.4979537265428Q1517.267964795664 494.7439459601717 1521.0496605222922 497.2796494531708L1521.0496605222922 497.2796494531708Q1524.6564801459547 499.64047684320445 1526.558257765704 502.7008086451Q1528.4381758725824 505.76114044699546 1528.4381758725824 509.3898195835287L1528.4381758725824 509.3898195835287Q1528.4381758725824 513.6305650804411 1526.077348482549 515.9258139318626Q1523.7165210925152 518.1992032704136 1520.1097014688528 518.1992032704136L1520.1097014688528 518.1992032704136Q1516.6340389224142 518.1992032704136 1514.032756890803 516.1662685734402Q1511.4533343720625 514.111474363596 1511.4533343720625 510.32977863696806L1511.4533343720625 510.32977863696806Q1511.4533343720625 506.7229590133055 1513.420690530424 504.5151482133666Q1515.3880466887854 502.3073374134277 1518.0549072590086 501.67341154017794L1518.0549072590086 501.67341154017794Q1516.4810223323195 498.8535343798599 1512.458871964114 496.9517567601106Q1508.458581108779 495.0718386532319 1503.8899429188066 495.0718386532319L1503.8899429188066 495.0718386532319Q1499.955230602084 495.0718386532319 1496.0205182853608 496.9517567601106Q1492.0858059686382 498.8535343798599 1488.7850195251654 503.181717928255Q1485.4842330816923 507.50990147665004 1483.429438871848 514.9858548784233Q1481.3746446620041 522.4618082801967 1481.3746446620041 533.6320193571152L1481.3746446620041 533.6320193571152Q1481.3746446620041 547.4690910042569 1484.5224145153823 555.6664083307628Q1487.6701843687604 563.8418661443978 1492.7853103805 567.3831072294483Q1497.9004363922397 570.9243483144988 1504.0429595089015 570.9243483144988L1504.0429595089015 570.9243483144988Q1508.1306884157186 570.9243483144988 1512.393293425502 569.3504633878097Q1516.6340389224142 567.7765784611206 1520.4157346490422 564.2353373760702Q1524.1974303756704 560.6940962910196 1526.8642909458936 554.7264492773234L1526.8642909458936 554.7264492773234L1529.859044209177 555.8194249208575Q1528.285159282488 560.8471128811144 1524.6564801459547 565.962238892854Q1521.0496605222922 571.0773649045937 1515.2131705858199 574.4000108609373Q1509.3985401622185 577.7007973044103 1500.8951896555234 577.7007973044103L1500.8951896555234 577.7007973044103Q1491.1458469151987 577.7007973044103 1483.2764222817534 572.6512498312827Q1475.4069976483077 567.6235618710259 1470.7509214068525 558.267690362374Q1466.1167046782678 548.8899593408513 1466.1167046782678 535.9928467471489L1466.1167046782678 535.9928467471489Q1466.1167046782678 523.0738746405757 1470.7509214068525 513.2370938487688Q1475.4069976483077 503.4003130569618 1483.7354720520377 497.8261372749379Q1492.0858059686382 492.23010198004323 1502.7969672752724 492.23010198004323ZM1578.1685676533846 492.23010198004323L1578.1685676533846 492.23010198004323Q1592.027498813397 492.23010198004323 1599.8094853953598 500.64601443525584Q1607.6133314901933 509.08378640333916 1607.6133314901933 526.8555703672037L1607.6133314901933 526.8555703672037L1552.0464497729192 526.8555703672037L1551.8934331828245 523.8608171039202L1592.5084080965519 523.8608171039202Q1592.8144412767413 516.1662685734402 1591.2405563500524 509.63027422510623Q1589.6666714233631 503.09427987677225 1586.2784469284074 499.1595675600495Q1582.8902224334518 495.2248552433267 1577.5565012930053 495.2248552433267L1577.5565012930053 495.2248552433267Q1570.2991430199388 495.2248552433267 1564.724967237915 502.46035400352247Q1559.1289319430205 509.6958527637183 1558.0359562994863 525.4347020306093L1558.0359562994863 525.4347020306093L1558.4950060697704 526.0686279038591Q1558.188972889581 528.4294552938928 1558.0359562994863 531.2711919670814Q1557.8829397093914 534.0910691273996 1557.8829397093914 536.9328058005881L1557.8829397093914 536.9328058005881Q1557.8829397093914 547.6439671072224 1561.3367427429591 555.3385156377026Q1564.7905457765269 563.0549236810533 1570.3865810714217 567.0770740492587Q1575.9826163663163 571.0773649045937 1581.9502633800123 571.0773649045937L1581.9502633800123 571.0773649045937Q1586.67191816008 571.0773649045937 1590.9345231698628 569.5909180293872Q1595.1752686667753 568.1044711541808 1598.8039478033083 564.6288086077425Q1602.410767426971 561.1750055741746 1605.0994875100648 555.3385156377026L1605.0994875100648 555.3385156377026L1608.247257363443 556.606367384202Q1606.4984963337884 561.8089314474244 1602.5637840170655 566.6836028175865Q1598.6290717003428 571.5582741877486 1592.6614246866466 574.6186059896442Q1586.67191816008 577.7007973044103 1578.8024935266342 577.7007973044103L1578.8024935266342 577.7007973044103Q1567.479265859621 577.7007973044103 1559.3693865845978 572.498233241188Q1551.2595073095747 567.3175286908363 1546.9313237611798 558.0928142594084Q1542.6031402127846 548.8899593408513 1542.6031402127846 536.9328058005881L1542.6031402127846 536.9328058005881Q1542.6031402127846 523.0738746405757 1547.0187618126624 513.0840772586739Q1551.4125238996696 503.09427987677225 1559.4568246360805 497.67312068484307Q1567.479265859621 492.23010198004323 1578.1685676533846 492.23010198004323ZM1672.4486466646365 492.23010198004323L1672.4486466646365 492.23010198004323Q1678.4381531912034 492.23010198004323 1682.438444046538 493.80398690673235Q1686.4605944147436 495.37787183342147 1689.127454984967 498.21960850661014L1689.127454984967 498.21960850661014Q1692.1222082482502 501.3673783599884 1693.39005999475 506.08903314005573Q1694.6360522283787 510.81068792012303 1694.6360522283787 518.8331291436634L1694.6360522283787 518.8331291436634L1694.6360522283787 560.8471128811144Q1694.6360522283787 567.4705452809311 1697.3903508500848 569.8313726709648Q1700.1446494717904 572.1922000609984 1706.6150652815124 572.1922000609984L1706.6150652815124 572.1922000609984L1706.6150652815124 575.4929865044714Q1703.9263451984186 575.3399699143766 1698.4177479550067 575.0995152727992Q1692.9091507115947 574.8590606312216 1687.7284461612433 574.8590606312216L1687.7284461612433 574.8590606312216Q1682.525882098021 574.8590606312216 1677.563772676376 575.0995152727992Q1672.6016632547312 575.3399699143766 1670.087819274603 575.4929865044714L1670.087819274603 575.4929865044714L1670.087819274603 572.1922000609984Q1675.7494331081093 572.1922000609984 1678.1102604981431 569.8313726709648Q1680.4710878881767 567.4705452809311 1680.4710878881767 560.8471128811144L1680.4710878881767 560.8471128811144L1680.4710878881767 515.3793261100957Q1680.4710878881767 510.4827952270628 1679.6841454248322 506.39506632024523Q1678.8972029614877 502.3073374134277 1676.1429043397816 499.79349343329926Q1673.3886057180757 497.2796494531708 1667.726991884569 497.2796494531708L1667.726991884569 497.2796494531708Q1661.125418997623 497.2796494531708 1656.1633095759782 501.0394856669281Q1651.2012001543333 504.8211813935562 1648.4469015326274 511.3571757418901Q1645.6926029109216 517.893170090224 1645.6926029109216 525.9156113137644L1645.6926029109216 525.9156113137644L1645.6926029109216 560.8471128811144Q1645.6926029109216 567.4705452809311 1648.0534303009551 569.8313726709648Q1650.4142576909887 572.1922000609984 1656.0758715244954 572.1922000609984L1656.0758715244954 572.1922000609984L1656.0758715244954 575.4929865044714Q1653.562027544367 575.3399699143766 1648.5999181227223 575.0995152727992Q1643.6596682139482 574.8590606312216 1638.4571041507256 574.8590606312216L1638.4571041507256 574.8590606312216Q1633.2545400875033 574.8590606312216 1627.7459428440914 575.0995152727992Q1622.2373456006796 575.3399699143766 1619.5704850304564 575.4929865044714L1619.5704850304564 575.4929865044714L1619.5704850304564 572.1922000609984Q1626.0190413273074 572.1922000609984 1628.7733399490137 569.8313726709648Q1631.5276385707195 567.4705452809311 1631.5276385707195 560.8471128811144L1631.5276385707195 560.8471128811144L1631.5276385707195 511.5976303834676Q1631.5276385707195 504.5151482133666 1629.013794590591 501.12692371841086Q1626.4999506104625 497.7386992234551 1619.5704850304564 497.7386992234551L1619.5704850304564 497.7386992234551L1619.5704850304564 494.4379127799821Q1624.5981729907132 494.91882206313716 1629.3198277707806 494.91882206313716L1629.3198277707806 494.91882206313716Q1633.8884659607531 494.91882206313716 1638.0636329190536 494.3504747284994Q1642.2387998773536 493.80398690673235 1645.6926029109216 492.71101126319826L1645.6926029109216 492.71101126319826L1645.6926029109216 511.26973769040734Q1649.7803318177391 500.5804358966438 1657.1032686294177 496.4052689383435Q1664.426205441096 492.23010198004323 1672.4486466646365 492.23010198004323ZM1738.8797062786393 468.315794899517L1738.8797062786393 468.315794899517L1738.8797062786393 494.59092937007694L1762.1600874859157 494.59092937007694L1762.1600874859157 497.7386992234551L1738.8797062786393 497.7386992234551L1738.8797062786393 558.6611615940462Q1738.8797062786393 566.0496769443367 1741.5465668488625 569.0444302076203Q1744.2134274190857 572.0391834709037 1748.9350821991532 572.0391834709037L1748.9350821991532 572.0391834709037Q1753.6567369792203 572.0391834709037 1757.132399525659 568.1700496927929Q1760.5862025592266 564.3227754275529 1763.1000465393552 555.1854990476077L1763.1000465393552 555.1854990476077L1766.2478163927333 555.9724415109523Q1764.6739314660442 565.1097178908974 1760.0397147374595 571.4052575976539Q1755.4054980088752 577.7007973044103 1745.7873123457748 577.7007973044103L1745.7873123457748 577.7007973044103Q1740.4535912053284 577.7007973044103 1736.97792865889 576.3673670192986Q1733.524125625322 575.0120772213164 1730.8354055422285 572.498233241188L1730.8354055422285 572.498233241188Q1727.3816025086605 568.8914136175254 1726.0481722235488 563.8418661443978Q1724.7147419384373 558.8141781841409 1724.7147419384373 550.4638442675405L1724.7147419384373 550.4638442675405L1724.7147419384373 497.7386992234551L1709.5879590319253 497.7386992234551L1709.5879590319253 494.59092937007694L1724.7147419384373 494.59092937007694L1724.7147419384373 470.5236056994559Q1728.6494542551602 470.34872959649044 1732.2562738788226 469.88967982620613Q1735.884953015356 469.4087705430511 1738.8797062786393 468.315794899517ZM1889.0108406744841 464.05318988973397L1889.0108406744841 464.05318988973397Q1888.398774314105 469.5617871331459 1888.1583196725276 474.76435119636824Q1887.9178650309498 479.96691525959056 1887.9178650309498 482.63377582981377L1887.9178650309498 482.63377582981377Q1887.9178650309498 485.4755125030025 1888.0708816210447 488.05493502174295Q1888.2238982111396 490.6562170533541 1888.398774314105 492.38311857013804L1888.398774314105 492.38311857013804L1884.7700951775716 492.38311857013804Q1883.8301361241322 483.1146851129688 1882.1032346073487 477.67166640816896Q1880.3544735776939 472.2505072162398 1876.2011661322642 469.9552583648182Q1872.0259991739642 467.68186902626724 1863.6756652573633 467.68186902626724L1863.6756652573633 467.68186902626724L1850.625536073566 467.68186902626724Q1845.2699554202493 467.68186902626724 1842.5156567985434 468.55624954109453Q1839.7613581768371 469.4087705430511 1838.8213991233981 472.1630691647571Q1837.8595805570878 474.91736778646305 1837.8595805570878 480.7538577229351L1837.8595805570878 480.7538577229351L1837.8595805570878 558.8141781841409Q1837.8595805570878 564.4757920176476 1838.8213991233981 567.3175286908363Q1839.7613581768371 570.1374058511543 1842.5156567985434 571.0117863659816Q1845.2699554202493 571.8643073679382 1850.625536073566 571.8643073679382L1850.625536073566 571.8643073679382L1862.1017803306743 571.8643073679382Q1872.0259991739642 571.8643073679382 1877.1411251857037 569.197446797715Q1882.2562511974431 566.5305862274918 1884.5296405359943 560.4536416494421Q1886.8248893874159 554.3985565842631 1887.9178650309498 544.0152879706891L1887.9178650309498 544.0152879706891L1891.546544167483 544.0152879706891Q1891.0656348843283 548.2560334676016 1891.0656348843283 555.3385156377026L1891.0656348843283 555.3385156377026Q1891.0656348843283 558.333268900986 1891.3060895259057 563.9293041958806Q1891.546544167483 569.5034799779046 1892.1586105278623 575.4929865044714L1892.1586105278623 575.4929865044714Q1884.136169304322 575.1869533242818 1874.0589338709376 575.0995152727992Q1864.0035579504236 575.0120772213164 1856.1341333169783 575.0120772213164L1856.1341333169783 575.0120772213164Q1852.6584707705395 575.0120772213164 1847.2373115786106 575.0120772213164Q1841.794292873811 575.0120772213164 1835.4987531670542 575.0995152727992Q1829.203213460298 575.1869533242818 1822.7546571634464 575.2525318628939Q1816.3061008665952 575.3399699143766 1810.4914704429941 575.4929865044714L1810.4914704429941 575.4929865044714L1810.4914704429941 572.3452166510932Q1815.8251915834405 572.0391834709037 1818.5794902051464 571.0773649045937Q1821.3337888268522 570.1374058511543 1822.295607393162 567.3175286908363Q1823.2355664466015 564.4757920176476 1823.2355664466015 558.8141781841409L1823.2355664466015 558.8141781841409L1823.2355664466015 480.7538577229351Q1823.2355664466015 474.91736778646305 1822.295607393162 472.1630691647571Q1821.3337888268522 469.4087705430511 1818.5794902051464 468.38137343812906Q1815.8251915834405 467.3758358460777 1810.4914704429941 467.2009597431122L1810.4914704429941 467.2009597431122L1810.4914704429941 464.05318988973397Q1816.3061008665952 464.22806599269944 1822.7546571634464 464.29364453131154Q1829.203213460298 464.38108258279425 1835.4987531670542 464.4466611214063Q1841.794292873811 464.534099172889 1847.2373115786106 464.534099172889Q1852.6584707705395 464.534099172889 1856.1341333169783 464.534099172889L1856.1341333169783 464.534099172889Q1863.369632077174 464.534099172889 1872.572486995731 464.4466611214063Q1881.7753419142884 464.38108258279425 1889.0108406744841 464.05318988973397ZM1833.1379257770207 517.893170090224L1861.9487637405798 517.893170090224Q1861.9487637405798 517.893170090224 1861.9487637405798 519.4670550169132Q1861.9487637405798 521.0409399436023 1861.9487637405798 521.0409399436023L1861.9487637405798 521.0409399436023L1833.1379257770207 521.0409399436023Q1833.1379257770207 521.0409399436023 1833.1379257770207 519.4670550169132Q1833.1379257770207 517.893170090224 1833.1379257770207 517.893170090224L1833.1379257770207 517.893170090224ZM1862.8887227940188 497.10477335020533L1866.517401930552 497.10477335020533Q1865.8834760573025 506.08903314005573 1865.9709141087853 510.81068792012303Q1866.0364926473974 515.5323427001904 1866.0364926473974 519.4670550169132L1866.0364926473974 519.4670550169132Q1866.0364926473974 523.4017673336359 1866.1895092374918 528.1234221137033Q1866.3643853404576 532.8450768937706 1866.9764517008364 541.8074771707503L1866.9764517008364 541.8074771707503L1863.369632077174 541.8074771707503Q1862.7357062039243 536.7797892104934 1861.861325689097 531.9706963789433Q1861.0088046871404 527.1834630602639 1858.1014894753396 524.1012717454978Q1855.1723147506684 521.0409399436023 1848.2647086835325 521.0409399436023L1848.2647086835325 521.0409399436023L1848.2647086835325 517.893170090224Q1853.4454132338844 517.893170090224 1856.1997118555903 515.772797341768Q1858.9540104772962 513.6305650804411 1860.2218622237958 510.32977863696806Q1861.4678544574247 507.028992193495 1861.9487637405798 503.48775110844457Q1862.4296730237345 499.946510023394 1862.8887227940188 497.10477335020533L1862.8887227940188 497.10477335020533ZM1932.4675522614 492.23010198004323L1932.4675522614 492.23010198004323Q1938.7630919681567 492.23010198004323 1943.1568540551636 494.2848961898874Q1947.5724756550414 496.3178308868608 1949.6054103520148 498.0665919165154L1949.6054103520148 498.0665919165154Q1954.8079744152371 502.3073374134277 1955.9009500587715 492.38311857013804L1955.9009500587715 492.38311857013804L1959.5296291953048 492.38311857013804Q1959.223596015115 496.79874017001583 1959.0487199121496 502.85382523519473Q1958.8957033220547 508.9089103003737 1958.8957033220547 519.1391623238529L1958.8957033220547 519.1391623238529L1955.2888836983923 519.1391623238529Q1954.327065132082 513.3245319002515 1952.0536757935313 507.8159346568396Q1949.7802864549806 502.3073374134277 1945.3646648551023 498.7660963283772Q1940.9490432552245 495.2248552433267 1933.8665610851237 495.2248552433267L1933.8665610851237 495.2248552433267Q1928.357963841712 495.2248552433267 1924.6637061665667 498.2851870452222Q1920.9694484914214 501.3673783599884 1920.9694484914214 507.3350253736846L1920.9694484914214 507.3350253736846Q1920.9694484914214 512.0566801537519 1923.8111851646102 515.4449046487077Q1926.631062324928 518.8331291436634 1931.1997005149008 521.7404443554641Q1935.768338704873 524.6477595672648 1941.1239193581903 528.1234221137033L1941.1239193581903 528.1234221137033Q1947.0915663718863 531.9051178403313 1951.9662377420489 535.839830157054Q1956.8627686250813 539.7745424737768 1959.7700838368821 544.4961972538442Q1962.677399048683 549.2178520339115 1962.677399048683 555.6664083307628L1962.677399048683 555.6664083307628Q1962.677399048683 562.9019070909585 1958.8957033220547 567.7765784611206Q1955.1140075954265 572.6512498312827 1949.058922530248 575.1869533242818Q1943.0038374650687 577.7007973044103 1935.768338704873 577.7007973044103L1935.768338704873 577.7007973044103Q1932.2926761584347 577.7007973044103 1929.232344356539 577.1543094826433Q1926.1720125546437 576.5859621480056 1923.330275881455 575.4929865044714L1923.330275881455 575.4929865044714Q1921.756390954766 574.7060440411269 1920.095067976594 573.6130683975928Q1918.455604511293 572.498233241188 1916.8817195846038 571.2522410075592L1916.8817195846038 571.2522410075592Q1915.3078346579148 569.9843892610595 1914.039982911415 571.3178195461712Q1912.7939906777863 572.6512498312827 1912.1600648045367 576.5859621480056L1912.1600648045367 576.5859621480056L1908.5313856680034 576.5859621480056Q1908.8592783610636 571.5582741877486 1909.012294951158 564.3227754275529Q1909.165311541253 557.0872766673572 1909.165311541253 545.1082636142232L1909.165311541253 545.1082636142232L1912.7939906777863 545.1082636142232Q1913.8869663213202 553.9395068139788 1915.9417605311644 560.5410797009249Q1917.9746952281378 567.1426525878708 1922.3903168280156 570.8587697758868Q1926.784078915023 574.5530274510321 1934.6535035484683 574.5530274510321L1934.6535035484683 574.5530274510321Q1937.8012734018469 574.5530274510321 1941.0364813067079 573.1321591144377Q1944.2716892115684 571.7112907778435 1946.4576404986367 568.4105043343704Q1948.6654512985754 565.1097178908974 1948.6654512985754 559.6011206474855L1948.6654512985754 559.6011206474855Q1948.6654512985754 552.6716550674794 1943.6377633383188 548.2560334676016Q1938.5882158651914 543.8622713805944 1930.893667334711 538.9876000104323L1930.893667334711 538.9876000104323Q1925.210193988334 535.358920873899 1920.2699440795598 531.7302417373658Q1915.3078346579148 528.1234221137033 1912.2256433431487 523.5547839237307Q1909.165311541253 518.9861457337581 1909.165311541253 512.537589436907L1909.165311541253 512.537589436907Q1909.165311541253 505.4551072668059 1912.400519446114 500.97390712831606Q1915.6138678381046 496.4927069898263 1920.9694484914214 494.3504747284994Q1926.3250291447387 492.23010198004323 1932.4675522614 492.23010198004323ZM2013.9816757561741 492.23010198004323L2013.9816757561741 492.23010198004323Q2019.0312232293015 492.23010198004323 2023.7528780093687 493.4979537265428Q2028.474532789436 494.7439459601717 2032.2343690031933 497.2796494531708L2032.2343690031933 497.2796494531708Q2035.8630481397265 499.64047684320445 2037.742966246605 502.7008086451Q2039.6447438663542 505.76114044699546 2039.6447438663542 509.3898195835287L2039.6447438663542 509.3898195835287Q2039.6447438663542 513.6305650804411 2037.283916476321 515.9258139318626Q2034.923089086287 518.1992032704136 2031.2944099497543 518.1992032704136L2031.2944099497543 518.1992032704136Q2027.8406069161863 518.1992032704136 2025.239324884575 516.1662685734402Q2022.638042852964 514.111474363596 2022.638042852964 510.32977863696806L2022.638042852964 510.32977863696806Q2022.638042852964 506.7229590133055 2024.6053990113253 504.5151482133666Q2026.5727551696866 502.3073374134277 2029.2614752527804 501.67341154017794L2029.2614752527804 501.67341154017794Q2027.6875903260914 498.8535343798599 2023.6654399578858 496.9517567601106Q2019.6432895896803 495.0718386532319 2015.0965109125789 495.0718386532319L2015.0965109125789 495.0718386532319Q2011.1617985958558 495.0718386532319 2007.2270862791331 496.9517567601106Q2003.29237396241 498.8535343798599 1999.9697280060666 503.181717928255Q1996.6689415625935 507.50990147665004 1994.6360068656202 514.9858548784233Q1992.581212655776 522.4618082801967 1992.581212655776 533.6320193571152L1992.581212655776 533.6320193571152Q1992.581212655776 547.4690910042569 1995.728982509154 555.6664083307628Q1998.8767523625322 563.8418661443978 2003.9918783742721 567.3831072294483Q2009.1070043860116 570.9243483144988 2015.2495275026733 570.9243483144988L2015.2495275026733 570.9243483144988Q2019.337256409491 570.9243483144988 2023.5780019064034 569.3504633878097Q2027.8406069161863 567.7765784611206 2031.622302642814 564.2353373760702Q2035.3821388565718 560.6940962910196 2038.0708589396656 554.7264492773234L2038.0708589396656 554.7264492773234L2041.0656122029488 555.8194249208575Q2039.4917272762598 560.8471128811144 2035.8630481397265 565.962238892854Q2032.2343690031933 571.0773649045937 2026.4197385795917 574.4000108609373Q2020.6051081559906 577.7007973044103 2012.1017576492952 577.7007973044103L2012.1017576492952 577.7007973044103Q2002.3305553961002 577.7007973044103 1994.4611307626544 572.6512498312827Q1986.5917061292091 567.6235618710259 1981.9574894006244 558.267690362374Q1977.3232726720396 548.8899593408513 1977.3232726720396 535.9928467471489L1977.3232726720396 535.9928467471489Q1977.3232726720396 523.0738746405757 1981.9574894006244 513.2370938487688Q1986.5917061292091 503.4003130569618 1994.9420400458096 497.8261372749379Q2003.29237396241 492.23010198004323 2013.9816757561741 492.23010198004323ZM2073.48326979017 576.5859621480056L2073.48326979017 576.5859621480056Q2067.034713493319 576.5859621480056 2062.313058713252 574.1595562193597Q2057.5914039331847 571.7112907778435 2055.1431384916677 567.3175286908363Q2052.6948730501517 562.9019070909585 2052.6948730501517 557.0872766673572L2052.6948730501517 557.0872766673572Q2052.6948730501517 550.1578110873509 2055.930080955013 545.7421894874731Q2059.1652888598737 541.3484274004659 2064.1929768201308 538.6597073173721Q2069.220664780388 535.9928467471489 2074.816700075282 534.1785071788822Q2080.412735370177 532.3641676106156 2085.440423330434 530.7247041453145Q2090.46811129069 529.0633811671426 2093.7033191955516 526.8555703672037Q2096.938527100412 524.6477595672648 2096.938527100412 521.0409399436023L2096.938527100412 521.0409399436023L2096.938527100412 511.26973769040734Q2096.938527100412 504.66816480346137 2094.971170942051 501.2143617698936Q2093.0038147836894 497.7386992234551 2089.6811688273465 496.5582855284383Q2086.3803823838725 495.37787183342147 2082.292653477056 495.37787183342147L2082.292653477056 495.37787183342147Q2078.3579411603323 495.37787183342147 2073.8767410218425 496.4927069898263Q2069.3955408833526 497.58568263336036 2066.7068208002593 501.0394856669281L2066.7068208002593 501.0394856669281Q2069.7015740635425 501.67341154017794 2071.909384863481 504.1872555203064Q2074.1171956634207 506.7229590133055 2074.1171956634207 510.6576713300283L2074.1171956634207 510.6576713300283Q2074.1171956634207 514.592383646751 2071.5814921704214 516.865772985302Q2069.067648190293 519.1391623238529 2065.13293587357 519.1391623238529L2065.13293587357 519.1391623238529Q2060.564297683597 519.1391623238529 2058.443924935141 516.2318471120523Q2056.3235521866845 513.3245319002515 2056.3235521866845 509.6958527637183L2056.3235521866845 509.6958527637183Q2056.3235521866845 505.6081238569007 2058.378346396529 503.09427987677225Q2060.411281093502 500.5804358966438 2063.559050946881 498.3726250967049L2063.559050946881 498.3726250967049Q2067.187730083414 495.8587811165765 2072.936781968403 494.04444154830986Q2078.663974340522 492.23010198004323 2085.9213326135887 492.23010198004323L2085.9213326135887 492.23010198004323Q2092.36988891044 492.23010198004323 2096.938527100412 493.7384083681203Q2101.4853057775144 495.2248552433267 2104.4800590407976 498.0665919165154L2104.4800590407976 498.0665919165154Q2108.567787947615 501.8264281302727 2109.8356396941144 507.26944683507253Q2111.1034914406146 512.6906060270016 2111.1034914406146 520.2539974802578L2111.1034914406146 520.2539974802578L2111.1034914406146 563.9948827344926Q2111.1034914406146 567.9295950512154 2112.2839051356314 569.67835608087Q2113.464318830648 571.4052575976539 2115.9781628107767 571.4052575976539L2115.9781628107767 571.4052575976539Q2117.7050643275606 571.4052575976539 2119.2789492542497 570.6183151343093Q2120.8528341809388 569.8313726709648 2123.0606449808774 568.1044711541808L2123.0606449808774 568.1044711541808L2124.7875464976614 570.771331724404Q2121.4867600541884 573.2851757045325 2118.492006790905 574.9464986827044Q2115.497253527622 576.5859621480056 2110.469565567365 576.5859621480056L2110.469565567365 576.5859621480056Q2105.900927377392 576.5859621480056 2102.9061741141086 575.0120772213164Q2099.9114208508254 573.4381922946272 2098.4249739756187 570.3778604927318Q2096.938527100412 567.3175286908363 2096.938527100412 562.5958739107689L2096.938527100412 562.5958739107689Q2092.6759220906297 569.67835608087 2086.7738536155457 573.1321591144377Q2080.871785140461 576.5859621480056 2073.48326979017 576.5859621480056ZM2079.144883623677 570.2904224412491L2079.144883623677 570.2904224412491Q2084.3474476868996 570.2904224412491 2088.8286478253895 567.3175286908363Q2093.3098479638793 564.3227754275529 2096.938527100412 558.333268900986L2096.938527100412 558.333268900986L2096.938527100412 527.4894962404535Q2095.0367494806633 530.1563568106767 2091.4299298570004 531.9706963789433Q2087.8012507204676 533.78503594721 2083.560505223555 535.5993755154766Q2079.2979002137718 537.4137150837432 2075.4506259485315 539.8401210123889Q2071.5814921704214 542.2883864539053 2069.067648190293 546.223098770628Q2066.5538042101643 550.1578110873509 2066.5538042101643 556.4533507941073L2066.5538042101643 556.4533507941073Q2066.5538042101643 562.7488905008638 2069.94202870512 566.5305862274918Q2073.330253200076 570.2904224412491 2079.144883623677 570.2904224412491ZM2178.4526505951862 492.23010198004323L2178.4526505951862 492.23010198004323Q2182.7152556049687 492.23010198004323 2185.9286039969593 493.95700349682716Q2189.1638119018207 495.7057645264817 2190.978151470087 498.46006314818766Q2192.7706315254827 501.2143617698936 2192.7706315254827 504.66816480346137L2192.7706315254827 504.66816480346137Q2192.7706315254827 508.60287712018413 2190.3442255968375 511.5976303834676Q2187.8959601553206 514.592383646751 2183.808231248503 514.592383646751L2183.808231248503 514.592383646751Q2180.50744480503 514.592383646751 2177.9936008249015 512.4501513854242Q2175.457897331902 510.32977863696806 2175.457897331902 506.39506632024523L2175.457897331902 506.39506632024523Q2175.457897331902 503.4003130569618 2177.1192203100745 501.2799403085056Q2178.780543288246 499.1595675600495 2180.81347798522 497.8917158135499L2180.81347798522 497.8917158135499Q2179.7205023416855 496.3178308868608 2177.512691541747 496.3178308868608L2177.512691541747 496.3178308868608Q2172.6380201715847 496.3178308868608 2168.550291264767 499.2470056115322Q2164.4407028450787 502.1543208233329 2161.6208256847613 506.7229590133055Q2158.779089011572 511.26973769040734 2157.205204084883 516.384863702147Q2155.631319158194 521.4999897138866 2155.631319158194 525.9156113137644L2155.631319158194 525.9156113137644L2155.631319158194 559.2732279544252Q2155.631319158194 566.9896359977761 2160.112519296684 569.5909180293872Q2164.6155789480445 572.1922000609984 2172.310127478524 572.1922000609984L2172.310127478524 572.1922000609984L2172.310127478524 575.4929865044714Q2168.703307854862 575.3399699143766 2162.079875455045 575.0995152727992Q2155.478302568099 574.8590606312216 2148.0897872178084 574.8590606312216L2148.0897872178084 574.8590606312216Q2142.7342065644916 574.8590606312216 2137.4660639626572 575.0995152727992Q2132.176061847952 575.3399699143766 2129.5092012777286 575.4929865044714L2129.5092012777286 575.4929865044714L2129.5092012777286 572.1922000609984Q2135.95775757458 572.1922000609984 2138.7120561962856 569.8313726709648Q2141.4663548179915 567.4705452809311 2141.4663548179915 560.8471128811144L2141.4663548179915 560.8471128811144L2141.4663548179915 511.5976303834676Q2141.4663548179915 504.5151482133666 2138.952510837863 501.12692371841086Q2136.4386668577354 497.7386992234551 2129.5092012777286 497.7386992234551L2129.5092012777286 497.7386992234551L2129.5092012777286 494.4379127799821Q2134.5368892379856 494.91882206313716 2139.258544018053 494.91882206313716L2139.258544018053 494.91882206313716Q2143.827182208026 494.91882206313716 2148.002349166326 494.3504747284994Q2152.177516124626 493.80398690673235 2155.631319158194 492.71101126319826L2155.631319158194 492.71101126319826L2155.631319158194 512.3845728468121Q2157.358220674978 507.8159346568396 2160.5934285798385 503.181717928255Q2163.8286364847 498.5256416867997 2168.3754151618014 495.37787183342147Q2172.9440533517745 492.23010198004323 2178.4526505951862 492.23010198004323ZM2224.8822559325145 468.315794899517L2224.8822559325145 468.315794899517L2224.8822559325145 494.59092937007694L2248.1844966526623 494.59092937007694L2248.1844966526623 497.7386992234551L2224.8822559325145 497.7386992234551L2224.8822559325145 558.6611615940462Q2224.8822559325145 566.0496769443367 2227.5709760156087 569.0444302076203Q2230.237836585832 572.0391834709037 2234.9594913658993 572.0391834709037L2234.9594913658993 572.0391834709037Q2239.6811461459665 572.0391834709037 2243.1349491795345 568.1700496927929Q2246.6106117259733 564.3227754275529 2249.124455706101 555.1854990476077L2249.124455706101 555.1854990476077L2252.27222555948 555.9724415109523Q2250.69834063279 565.1097178908974 2246.064123904206 571.4052575976539Q2241.4080476627505 577.7007973044103 2231.811721512521 577.7007973044103L2231.811721512521 577.7007973044103Q2226.4561408592035 577.7007973044103 2223.0023378256365 576.3673670192986Q2219.5266752791977 575.0120772213164 2216.859814708974 572.498233241188L2216.859814708974 572.498233241188Q2213.4060116754063 568.8914136175254 2212.0507218774246 563.8418661443978Q2210.717291592313 558.8141781841409 2210.717291592313 550.4638442675405L2210.717291592313 550.4638442675405L2210.717291592313 497.7386992234551L2195.612368198672 497.7386992234551L2195.612368198672 494.59092937007694L2210.717291592313 494.59092937007694L2210.717291592313 470.5236056994559Q2214.6520039090356 470.34872959649044 2218.2806830455684 469.88967982620613Q2221.8875026692313 469.4087705430511 2224.8822559325145 468.315794899517ZM2273.2136388895933 455.09078961275435L2273.2136388895933 455.09078961275435Q2277.301367796411 455.09078961275435 2280.296121059694 458.0855428760378Q2283.2690148101065 461.0802961393212 2283.2690148101065 465.1680250461388L2283.2690148101065 465.1680250461388Q2283.2690148101065 469.25575395295635 2280.296121059694 472.2505072162398Q2277.301367796411 475.24526047952327 2273.2136388895933 475.24526047952327L2273.2136388895933 475.24526047952327Q2269.104050469905 475.24526047952327 2266.1311567194916 472.2505072162398Q2263.1364034562084 469.25575395295635 2263.1364034562084 465.1680250461388L2263.1364034562084 465.1680250461388Q2263.1364034562084 461.0802961393212 2266.1311567194916 458.0855428760378Q2269.104050469905 455.09078961275435 2273.2136388895933 455.09078961275435ZM2281.3890967032285 492.71101126319826L2281.3890967032285 492.71101126319826L2281.3890967032285 560.8471128811144Q2281.3890967032285 567.4705452809311 2284.1433953249334 569.8313726709648Q2286.89769394664 572.1922000609984 2293.3462502434913 572.1922000609984L2293.3462502434913 572.1922000609984L2293.3462502434913 575.4929865044714Q2290.679389673268 575.3399699143766 2285.236370968468 575.0995152727992Q2279.8152117765385 574.8590606312216 2274.306614533127 574.8590606312216L2274.306614533127 574.8590606312216Q2268.95103387981 574.8590606312216 2263.4424366363983 575.0995152727992Q2257.9338393929856 575.3399699143766 2255.266978822763 575.4929865044714L2255.266978822763 575.4929865044714L2255.266978822763 572.1922000609984Q2261.7155351196143 572.1922000609984 2264.46983374132 569.8313726709648Q2267.224132363026 567.4705452809311 2267.224132363026 560.8471128811144L2267.224132363026 560.8471128811144L2267.224132363026 511.5976303834676Q2267.224132363026 504.5151482133666 2264.7102883828975 501.12692371841086Q2262.196444402769 497.7386992234551 2255.266978822763 497.7386992234551L2255.266978822763 497.7386992234551L2255.266978822763 494.4379127799821Q2260.29466678302 494.91882206313716 2265.0163215630873 494.91882206313716L2265.0163215630873 494.91882206313716Q2269.5849597530596 494.91882206313716 2273.7601267113596 494.3504747284994Q2277.9352936696605 493.80398690673235 2281.3890967032285 492.71101126319826ZM2354.2687126140827 492.23010198004323L2354.2687126140827 492.23010198004323Q2360.2363596277783 492.23010198004323 2364.2585099959842 493.80398690673235Q2368.2588008513185 495.37787183342147 2370.9475209344128 498.21960850661014L2370.9475209344128 498.21960850661014Q2373.942274197696 501.3673783599884 2375.1882664313252 506.08903314005573Q2376.4561181778245 510.81068792012303 2376.4561181778245 518.8331291436634L2376.4561181778245 518.8331291436634L2376.4561181778245 560.8471128811144Q2376.4561181778245 567.4705452809311 2379.2104167995303 569.8313726709648Q2381.964715421236 572.1922000609984 2388.4132717180873 572.1922000609984L2388.4132717180873 572.1922000609984L2388.4132717180873 575.4929865044714Q2385.746411147865 575.3399699143766 2380.237813904452 575.0995152727992Q2374.7292166610405 574.8590606312216 2369.5266525978186 574.8590606312216L2369.5266525978186 574.8590606312216Q2364.324088534596 574.8590606312216 2359.383838625822 575.0995152727992Q2354.4217292041767 575.3399699143766 2351.907885224049 575.4929865044714L2351.907885224049 575.4929865044714L2351.907885224049 572.1922000609984Q2357.569499057555 572.1922000609984 2359.9303264475893 569.8313726709648Q2362.291153837623 567.4705452809311 2362.291153837623 560.8471128811144L2362.291153837623 560.8471128811144L2362.291153837623 515.3793261100957Q2362.291153837623 510.4827952270628 2361.5042113742784 506.39506632024523Q2360.717268910934 502.3073374134277 2357.962970289227 499.79349343329926Q2355.2086716675212 497.2796494531708 2349.5470578340146 497.2796494531708L2349.5470578340146 497.2796494531708Q2342.9236254341986 497.2796494531708 2337.961516012553 501.0394856669281Q2333.0212661037795 504.8211813935562 2330.2669674820736 511.3571757418901Q2327.5126688603677 517.893170090224 2327.5126688603677 525.9156113137644L2327.5126688603677 525.9156113137644L2327.5126688603677 560.8471128811144Q2327.5126688603677 567.4705452809311 2329.8734962504013 569.8313726709648Q2332.234323640435 572.1922000609984 2337.8959374739416 572.1922000609984L2337.8959374739416 572.1922000609984L2337.8959374739416 575.4929865044714Q2335.382093493813 575.3399699143766 2330.4199840721685 575.0995152727992Q2325.457874650523 574.8590606312216 2320.255310587301 574.8590606312216L2320.255310587301 574.8590606312216Q2315.0746060369493 574.8590606312216 2309.5660087935375 575.0995152727992Q2304.057411550126 575.3399699143766 2301.3686914670316 575.4929865044714L2301.3686914670316 575.4929865044714L2301.3686914670316 572.1922000609984Q2307.8391072767536 572.1922000609984 2310.5934058984594 569.8313726709648Q2313.3477045201653 567.4705452809311 2313.3477045201653 560.8471128811144L2313.3477045201653 560.8471128811144L2313.3477045201653 511.5976303834676Q2313.3477045201653 504.5151482133666 2310.812001027167 501.12692371841086Q2308.2981570470374 497.7386992234551 2301.3686914670316 497.7386992234551L2301.3686914670316 497.7386992234551L2301.3686914670316 494.4379127799821Q2306.4182389401594 494.91882206313716 2311.1398937202266 494.91882206313716L2311.1398937202266 494.91882206313716Q2315.708531910199 494.91882206313716 2319.861839355629 494.3504747284994Q2324.037006313929 493.80398690673235 2327.5126688603677 492.71101126319826L2327.5126688603677 492.71101126319826L2327.5126688603677 511.26973769040734Q2331.6003977671853 500.5804358966438 2338.9233345788634 496.4052689383435Q2346.2244118776707 492.23010198004323 2354.2687126140827 492.23010198004323Z " fill="#334155" transform="matrix(0.3663519998740665,0,0,0.3663519998740665,0,105.80017471747472)"/></g></svg>